<mxfile host="65bd71144e">
    <diagram id="zgVW27qtmkPbW_qnDIvs" name="Step 1 Define Purpose">
        <mxGraphModel dx="636" dy="422" grid="1" gridSize="10" guides="1" tooltips="1" connect="1" arrows="1" fold="1" page="1" pageScale="1" pageWidth="827" pageHeight="1169" math="0" shadow="0">
            <root>
                <mxCell id="YaWnEw_F_nQBMdtafvjq-0"/>
                <mxCell id="YaWnEw_F_nQBMdtafvjq-1" parent="YaWnEw_F_nQBMdtafvjq-0"/>
                <mxCell id="vGUIUQr59BMWoO-rVWWt-0" value="buses" style="ellipse;shape=cloud;whiteSpace=wrap;html=1;" vertex="1" parent="YaWnEw_F_nQBMdtafvjq-1">
                    <mxGeometry x="50" y="110" width="120" height="80" as="geometry"/>
                </mxCell>
                <mxCell id="vGUIUQr59BMWoO-rVWWt-1" value="routes" style="ellipse;shape=cloud;whiteSpace=wrap;html=1;" vertex="1" parent="YaWnEw_F_nQBMdtafvjq-1">
                    <mxGeometry x="220" y="110" width="120" height="80" as="geometry"/>
                </mxCell>
                <mxCell id="vGUIUQr59BMWoO-rVWWt-2" value="driver" style="ellipse;shape=cloud;whiteSpace=wrap;html=1;" vertex="1" parent="YaWnEw_F_nQBMdtafvjq-1">
                    <mxGeometry x="380" y="110" width="120" height="80" as="geometry"/>
                </mxCell>
                <mxCell id="vGUIUQr59BMWoO-rVWWt-3" value="bus station" style="ellipse;shape=cloud;whiteSpace=wrap;html=1;" vertex="1" parent="YaWnEw_F_nQBMdtafvjq-1">
                    <mxGeometry x="220" y="270" width="120" height="80" as="geometry"/>
                </mxCell>
                <mxCell id="vGUIUQr59BMWoO-rVWWt-4" value="cities" style="ellipse;shape=cloud;whiteSpace=wrap;html=1;" vertex="1" parent="YaWnEw_F_nQBMdtafvjq-1">
                    <mxGeometry x="410" y="260" width="120" height="80" as="geometry"/>
                </mxCell>
            </root>
        </mxGraphModel>
    </diagram>
    <diagram id="9ePzMAtWB7DYNszRs10G" name="Step 2 Entity-Relationship Model">
        <mxGraphModel dx="1534" dy="469" grid="1" gridSize="10" guides="1" tooltips="1" connect="1" arrows="1" fold="1" page="1" pageScale="1" pageWidth="827" pageHeight="1169" math="0" shadow="0">
            <root>
                <mxCell id="ZcNHztUdkP1Tjcj9PYkl-0"/>
                <mxCell id="ZcNHztUdkP1Tjcj9PYkl-1" parent="ZcNHztUdkP1Tjcj9PYkl-0"/>
                <mxCell id="hj4UKLwLYTh48s9RA0am-20" style="edgeStyle=none;html=1;exitX=1;exitY=0.5;exitDx=0;exitDy=0;entryX=0;entryY=0.5;entryDx=0;entryDy=0;endArrow=ERone;endFill=0;" edge="1" parent="ZcNHztUdkP1Tjcj9PYkl-1" source="hj4UKLwLYTh48s9RA0am-6" target="hj4UKLwLYTh48s9RA0am-7">
                    <mxGeometry relative="1" as="geometry"/>
                </mxCell>
                <mxCell id="hj4UKLwLYTh48s9RA0am-6" value="buses" style="rounded=0;whiteSpace=wrap;html=1;" vertex="1" parent="ZcNHztUdkP1Tjcj9PYkl-1">
                    <mxGeometry x="50" y="100" width="120" height="60" as="geometry"/>
                </mxCell>
                <mxCell id="hj4UKLwLYTh48s9RA0am-7" value="routes" style="rounded=0;whiteSpace=wrap;html=1;" vertex="1" parent="ZcNHztUdkP1Tjcj9PYkl-1">
                    <mxGeometry x="210" y="100" width="120" height="60" as="geometry"/>
                </mxCell>
                <mxCell id="hj4UKLwLYTh48s9RA0am-24" style="edgeStyle=none;html=1;exitX=1;exitY=0.5;exitDx=0;exitDy=0;entryX=0;entryY=0.5;entryDx=0;entryDy=0;endArrow=ERone;endFill=0;" edge="1" parent="ZcNHztUdkP1Tjcj9PYkl-1" source="hj4UKLwLYTh48s9RA0am-8" target="hj4UKLwLYTh48s9RA0am-6">
                    <mxGeometry relative="1" as="geometry"/>
                </mxCell>
                <mxCell id="hj4UKLwLYTh48s9RA0am-8" value="driver" style="rounded=0;whiteSpace=wrap;html=1;" vertex="1" parent="ZcNHztUdkP1Tjcj9PYkl-1">
                    <mxGeometry x="-170" y="110" width="120" height="60" as="geometry"/>
                </mxCell>
                <mxCell id="hj4UKLwLYTh48s9RA0am-38" style="edgeStyle=none;html=1;exitX=1;exitY=0.5;exitDx=0;exitDy=0;entryX=0;entryY=0.5;entryDx=0;entryDy=0;endArrow=ERmany;endFill=0;" edge="1" parent="ZcNHztUdkP1Tjcj9PYkl-1" source="hj4UKLwLYTh48s9RA0am-9" target="hj4UKLwLYTh48s9RA0am-10">
                    <mxGeometry relative="1" as="geometry"/>
                </mxCell>
                <mxCell id="hj4UKLwLYTh48s9RA0am-9" value="cities" style="rounded=0;whiteSpace=wrap;html=1;" vertex="1" parent="ZcNHztUdkP1Tjcj9PYkl-1">
                    <mxGeometry x="540" y="100" width="120" height="60" as="geometry"/>
                </mxCell>
                <mxCell id="hj4UKLwLYTh48s9RA0am-10" value="bus station" style="rounded=0;whiteSpace=wrap;html=1;" vertex="1" parent="ZcNHztUdkP1Tjcj9PYkl-1">
                    <mxGeometry x="707" y="100" width="120" height="60" as="geometry"/>
                </mxCell>
                <mxCell id="hj4UKLwLYTh48s9RA0am-11" value="license plate number (ID)" style="ellipse;whiteSpace=wrap;html=1;" vertex="1" parent="ZcNHztUdkP1Tjcj9PYkl-1">
                    <mxGeometry x="30" y="200" width="100" height="60" as="geometry"/>
                </mxCell>
                <mxCell id="hj4UKLwLYTh48s9RA0am-12" value="model" style="ellipse;whiteSpace=wrap;html=1;" vertex="1" parent="ZcNHztUdkP1Tjcj9PYkl-1">
                    <mxGeometry x="30" y="280" width="100" height="60" as="geometry"/>
                </mxCell>
                <mxCell id="hj4UKLwLYTh48s9RA0am-13" value="capacity" style="ellipse;whiteSpace=wrap;html=1;" vertex="1" parent="ZcNHztUdkP1Tjcj9PYkl-1">
                    <mxGeometry x="30" y="360" width="100" height="60" as="geometry"/>
                </mxCell>
                <mxCell id="hj4UKLwLYTh48s9RA0am-14" value="driver name" style="ellipse;whiteSpace=wrap;html=1;" vertex="1" parent="ZcNHztUdkP1Tjcj9PYkl-1">
                    <mxGeometry x="30" y="440" width="100" height="60" as="geometry"/>
                </mxCell>
                <mxCell id="hj4UKLwLYTh48s9RA0am-15" value="route ID" style="ellipse;whiteSpace=wrap;html=1;" vertex="1" parent="ZcNHztUdkP1Tjcj9PYkl-1">
                    <mxGeometry x="220" y="200" width="100" height="60" as="geometry"/>
                </mxCell>
                <mxCell id="hj4UKLwLYTh48s9RA0am-17" value="distance" style="ellipse;whiteSpace=wrap;html=1;" vertex="1" parent="ZcNHztUdkP1Tjcj9PYkl-1">
                    <mxGeometry x="220" y="290" width="100" height="60" as="geometry"/>
                </mxCell>
                <mxCell id="hj4UKLwLYTh48s9RA0am-18" value="origin" style="ellipse;whiteSpace=wrap;html=1;" vertex="1" parent="ZcNHztUdkP1Tjcj9PYkl-1">
                    <mxGeometry x="210" y="360" width="100" height="60" as="geometry"/>
                </mxCell>
                <mxCell id="hj4UKLwLYTh48s9RA0am-19" value="destination" style="ellipse;whiteSpace=wrap;html=1;" vertex="1" parent="ZcNHztUdkP1Tjcj9PYkl-1">
                    <mxGeometry x="210" y="430" width="100" height="60" as="geometry"/>
                </mxCell>
                <mxCell id="hj4UKLwLYTh48s9RA0am-21" value="driver ID" style="ellipse;whiteSpace=wrap;html=1;" vertex="1" parent="ZcNHztUdkP1Tjcj9PYkl-1">
                    <mxGeometry x="-160" y="200" width="100" height="60" as="geometry"/>
                </mxCell>
                <mxCell id="hj4UKLwLYTh48s9RA0am-22" value="fName" style="ellipse;whiteSpace=wrap;html=1;" vertex="1" parent="ZcNHztUdkP1Tjcj9PYkl-1">
                    <mxGeometry x="-170" y="290" width="100" height="60" as="geometry"/>
                </mxCell>
                <mxCell id="hj4UKLwLYTh48s9RA0am-23" value="LName" style="ellipse;whiteSpace=wrap;html=1;" vertex="1" parent="ZcNHztUdkP1Tjcj9PYkl-1">
                    <mxGeometry x="-170" y="370" width="100" height="60" as="geometry"/>
                </mxCell>
                <mxCell id="hj4UKLwLYTh48s9RA0am-25" value="city ID" style="ellipse;whiteSpace=wrap;html=1;" vertex="1" parent="ZcNHztUdkP1Tjcj9PYkl-1">
                    <mxGeometry x="550" y="200" width="100" height="60" as="geometry"/>
                </mxCell>
                <mxCell id="hj4UKLwLYTh48s9RA0am-26" value="city name" style="ellipse;whiteSpace=wrap;html=1;" vertex="1" parent="ZcNHztUdkP1Tjcj9PYkl-1">
                    <mxGeometry x="550" y="290" width="100" height="60" as="geometry"/>
                </mxCell>
                <mxCell id="hj4UKLwLYTh48s9RA0am-27" value="address" style="ellipse;whiteSpace=wrap;html=1;" vertex="1" parent="ZcNHztUdkP1Tjcj9PYkl-1">
                    <mxGeometry x="550" y="360" width="100" height="60" as="geometry"/>
                </mxCell>
                <mxCell id="hj4UKLwLYTh48s9RA0am-28" value="telephone number" style="ellipse;whiteSpace=wrap;html=1;" vertex="1" parent="ZcNHztUdkP1Tjcj9PYkl-1">
                    <mxGeometry x="550" y="440" width="100" height="60" as="geometry"/>
                </mxCell>
                <mxCell id="hj4UKLwLYTh48s9RA0am-29" value="bus station name" style="ellipse;whiteSpace=wrap;html=1;" vertex="1" parent="ZcNHztUdkP1Tjcj9PYkl-1">
                    <mxGeometry x="717" y="290" width="100" height="60" as="geometry"/>
                </mxCell>
                <mxCell id="hj4UKLwLYTh48s9RA0am-30" value="order number" style="ellipse;whiteSpace=wrap;html=1;" vertex="1" parent="ZcNHztUdkP1Tjcj9PYkl-1">
                    <mxGeometry x="717" y="200" width="100" height="60" as="geometry"/>
                </mxCell>
                <mxCell id="hj4UKLwLYTh48s9RA0am-35" style="edgeStyle=none;html=1;exitX=1;exitY=0.5;exitDx=0;exitDy=0;entryX=0;entryY=0.5;entryDx=0;entryDy=0;endArrow=ERmany;endFill=0;" edge="1" parent="ZcNHztUdkP1Tjcj9PYkl-1" source="hj4UKLwLYTh48s9RA0am-32" target="hj4UKLwLYTh48s9RA0am-9">
                    <mxGeometry relative="1" as="geometry"/>
                </mxCell>
                <mxCell id="hj4UKLwLYTh48s9RA0am-36" style="edgeStyle=none;html=1;exitX=0;exitY=0.5;exitDx=0;exitDy=0;endArrow=ERmany;endFill=0;" edge="1" parent="ZcNHztUdkP1Tjcj9PYkl-1" source="hj4UKLwLYTh48s9RA0am-32" target="hj4UKLwLYTh48s9RA0am-7">
                    <mxGeometry relative="1" as="geometry"/>
                </mxCell>
                <mxCell id="hj4UKLwLYTh48s9RA0am-32" value="pass through" style="rhombus;whiteSpace=wrap;html=1;" vertex="1" parent="ZcNHztUdkP1Tjcj9PYkl-1">
                    <mxGeometry x="390" y="90" width="96" height="80" as="geometry"/>
                </mxCell>
            </root>
        </mxGraphModel>
    </diagram>
    <diagram id="JPM_A53cZPw-K5ohQ-qO" name="Step 3 UML">
        <mxGraphModel dx="1380" dy="367" grid="1" gridSize="10" guides="1" tooltips="1" connect="1" arrows="1" fold="1" page="1" pageScale="1" pageWidth="827" pageHeight="1169" math="0" shadow="0">
            <root>
                <mxCell id="uQI4X9tJIaOTLOVRhrYV-0"/>
                <mxCell id="uQI4X9tJIaOTLOVRhrYV-1" parent="uQI4X9tJIaOTLOVRhrYV-0"/>
                <mxCell id="6Pv5hWprYkh9W1umphO1-28" value="driver" style="swimlane;fontStyle=0;childLayout=stackLayout;horizontal=1;startSize=26;fillColor=none;horizontalStack=0;resizeParent=1;resizeParentMax=0;resizeLast=0;collapsible=1;marginBottom=0;" vertex="1" parent="uQI4X9tJIaOTLOVRhrYV-1">
                    <mxGeometry x="-120" y="100" width="140" height="104" as="geometry"/>
                </mxCell>
                <mxCell id="6Pv5hWprYkh9W1umphO1-29" value="driver ID: int" style="text;strokeColor=none;fillColor=none;align=left;verticalAlign=top;spacingLeft=4;spacingRight=4;overflow=hidden;rotatable=0;points=[[0,0.5],[1,0.5]];portConstraint=eastwest;" vertex="1" parent="6Pv5hWprYkh9W1umphO1-28">
                    <mxGeometry y="26" width="140" height="26" as="geometry"/>
                </mxCell>
                <mxCell id="6Pv5hWprYkh9W1umphO1-30" value="fName: string" style="text;strokeColor=none;fillColor=none;align=left;verticalAlign=top;spacingLeft=4;spacingRight=4;overflow=hidden;rotatable=0;points=[[0,0.5],[1,0.5]];portConstraint=eastwest;" vertex="1" parent="6Pv5hWprYkh9W1umphO1-28">
                    <mxGeometry y="52" width="140" height="26" as="geometry"/>
                </mxCell>
                <mxCell id="6Pv5hWprYkh9W1umphO1-31" value="LName: string" style="text;strokeColor=none;fillColor=none;align=left;verticalAlign=top;spacingLeft=4;spacingRight=4;overflow=hidden;rotatable=0;points=[[0,0.5],[1,0.5]];portConstraint=eastwest;" vertex="1" parent="6Pv5hWprYkh9W1umphO1-28">
                    <mxGeometry y="78" width="140" height="26" as="geometry"/>
                </mxCell>
                <mxCell id="6Pv5hWprYkh9W1umphO1-32" value="buses" style="swimlane;fontStyle=0;childLayout=stackLayout;horizontal=1;startSize=26;fillColor=none;horizontalStack=0;resizeParent=1;resizeParentMax=0;resizeLast=0;collapsible=1;marginBottom=0;" vertex="1" parent="uQI4X9tJIaOTLOVRhrYV-1">
                    <mxGeometry x="80" y="100" width="180" height="156" as="geometry"/>
                </mxCell>
                <mxCell id="6Pv5hWprYkh9W1umphO1-33" value="license plate number (ID): string" style="text;strokeColor=none;fillColor=none;align=left;verticalAlign=top;spacingLeft=4;spacingRight=4;overflow=hidden;rotatable=0;points=[[0,0.5],[1,0.5]];portConstraint=eastwest;" vertex="1" parent="6Pv5hWprYkh9W1umphO1-32">
                    <mxGeometry y="26" width="180" height="26" as="geometry"/>
                </mxCell>
                <mxCell id="6Pv5hWprYkh9W1umphO1-34" value="model: string" style="text;strokeColor=none;fillColor=none;align=left;verticalAlign=top;spacingLeft=4;spacingRight=4;overflow=hidden;rotatable=0;points=[[0,0.5],[1,0.5]];portConstraint=eastwest;" vertex="1" parent="6Pv5hWprYkh9W1umphO1-32">
                    <mxGeometry y="52" width="180" height="26" as="geometry"/>
                </mxCell>
                <mxCell id="6Pv5hWprYkh9W1umphO1-35" value="capacity: int" style="text;strokeColor=none;fillColor=none;align=left;verticalAlign=top;spacingLeft=4;spacingRight=4;overflow=hidden;rotatable=0;points=[[0,0.5],[1,0.5]];portConstraint=eastwest;" vertex="1" parent="6Pv5hWprYkh9W1umphO1-32">
                    <mxGeometry y="78" width="180" height="26" as="geometry"/>
                </mxCell>
                <mxCell id="6Pv5hWprYkh9W1umphO1-36" value="driver name: string" style="text;strokeColor=none;fillColor=none;align=left;verticalAlign=top;spacingLeft=4;spacingRight=4;overflow=hidden;rotatable=0;points=[[0,0.5],[1,0.5]];portConstraint=eastwest;" vertex="1" parent="6Pv5hWprYkh9W1umphO1-32">
                    <mxGeometry y="104" width="180" height="26" as="geometry"/>
                </mxCell>
                <mxCell id="6Pv5hWprYkh9W1umphO1-53" value="fk driver ID: int" style="text;strokeColor=none;fillColor=none;align=left;verticalAlign=top;spacingLeft=4;spacingRight=4;overflow=hidden;rotatable=0;points=[[0,0.5],[1,0.5]];portConstraint=eastwest;" vertex="1" parent="6Pv5hWprYkh9W1umphO1-32">
                    <mxGeometry y="130" width="180" height="26" as="geometry"/>
                </mxCell>
                <mxCell id="6Pv5hWprYkh9W1umphO1-37" value="routes" style="swimlane;fontStyle=0;childLayout=stackLayout;horizontal=1;startSize=26;fillColor=none;horizontalStack=0;resizeParent=1;resizeParentMax=0;resizeLast=0;collapsible=1;marginBottom=0;" vertex="1" parent="uQI4X9tJIaOTLOVRhrYV-1">
                    <mxGeometry x="320" y="120" width="210" height="182" as="geometry"/>
                </mxCell>
                <mxCell id="6Pv5hWprYkh9W1umphO1-38" value="route ID: int" style="text;strokeColor=none;fillColor=none;align=left;verticalAlign=top;spacingLeft=4;spacingRight=4;overflow=hidden;rotatable=0;points=[[0,0.5],[1,0.5]];portConstraint=eastwest;" vertex="1" parent="6Pv5hWprYkh9W1umphO1-37">
                    <mxGeometry y="26" width="210" height="26" as="geometry"/>
                </mxCell>
                <mxCell id="6Pv5hWprYkh9W1umphO1-39" value="distance: int" style="text;strokeColor=none;fillColor=none;align=left;verticalAlign=top;spacingLeft=4;spacingRight=4;overflow=hidden;rotatable=0;points=[[0,0.5],[1,0.5]];portConstraint=eastwest;" vertex="1" parent="6Pv5hWprYkh9W1umphO1-37">
                    <mxGeometry y="52" width="210" height="26" as="geometry"/>
                </mxCell>
                <mxCell id="6Pv5hWprYkh9W1umphO1-40" value="origin: string" style="text;strokeColor=none;fillColor=none;align=left;verticalAlign=top;spacingLeft=4;spacingRight=4;overflow=hidden;rotatable=0;points=[[0,0.5],[1,0.5]];portConstraint=eastwest;" vertex="1" parent="6Pv5hWprYkh9W1umphO1-37">
                    <mxGeometry y="78" width="210" height="26" as="geometry"/>
                </mxCell>
                <mxCell id="6Pv5hWprYkh9W1umphO1-41" value="origin: string" style="text;strokeColor=none;fillColor=none;align=left;verticalAlign=top;spacingLeft=4;spacingRight=4;overflow=hidden;rotatable=0;points=[[0,0.5],[1,0.5]];portConstraint=eastwest;" vertex="1" parent="6Pv5hWprYkh9W1umphO1-37">
                    <mxGeometry y="104" width="210" height="26" as="geometry"/>
                </mxCell>
                <mxCell id="6Pv5hWprYkh9W1umphO1-42" value="destination: string" style="text;strokeColor=none;fillColor=none;align=left;verticalAlign=top;spacingLeft=4;spacingRight=4;overflow=hidden;rotatable=0;points=[[0,0.5],[1,0.5]];portConstraint=eastwest;" vertex="1" parent="6Pv5hWprYkh9W1umphO1-37">
                    <mxGeometry y="130" width="210" height="26" as="geometry"/>
                </mxCell>
                <mxCell id="6Pv5hWprYkh9W1umphO1-55" value="fk license plate number (ID): String" style="text;strokeColor=none;fillColor=none;align=left;verticalAlign=top;spacingLeft=4;spacingRight=4;overflow=hidden;rotatable=0;points=[[0,0.5],[1,0.5]];portConstraint=eastwest;" vertex="1" parent="6Pv5hWprYkh9W1umphO1-37">
                    <mxGeometry y="156" width="210" height="26" as="geometry"/>
                </mxCell>
                <mxCell id="6Pv5hWprYkh9W1umphO1-44" value="cities" style="swimlane;fontStyle=0;childLayout=stackLayout;horizontal=1;startSize=26;fillColor=none;horizontalStack=0;resizeParent=1;resizeParentMax=0;resizeLast=0;collapsible=1;marginBottom=0;" vertex="1" parent="uQI4X9tJIaOTLOVRhrYV-1">
                    <mxGeometry x="760" y="120" width="140" height="156" as="geometry"/>
                </mxCell>
                <mxCell id="6Pv5hWprYkh9W1umphO1-45" value="city ID: int" style="text;strokeColor=none;fillColor=none;align=left;verticalAlign=top;spacingLeft=4;spacingRight=4;overflow=hidden;rotatable=0;points=[[0,0.5],[1,0.5]];portConstraint=eastwest;" vertex="1" parent="6Pv5hWprYkh9W1umphO1-44">
                    <mxGeometry y="26" width="140" height="26" as="geometry"/>
                </mxCell>
                <mxCell id="6Pv5hWprYkh9W1umphO1-46" value="city name: string" style="text;strokeColor=none;fillColor=none;align=left;verticalAlign=top;spacingLeft=4;spacingRight=4;overflow=hidden;rotatable=0;points=[[0,0.5],[1,0.5]];portConstraint=eastwest;" vertex="1" parent="6Pv5hWprYkh9W1umphO1-44">
                    <mxGeometry y="52" width="140" height="26" as="geometry"/>
                </mxCell>
                <mxCell id="6Pv5hWprYkh9W1umphO1-47" value="address: string" style="text;strokeColor=none;fillColor=none;align=left;verticalAlign=top;spacingLeft=4;spacingRight=4;overflow=hidden;rotatable=0;points=[[0,0.5],[1,0.5]];portConstraint=eastwest;" vertex="1" parent="6Pv5hWprYkh9W1umphO1-44">
                    <mxGeometry y="78" width="140" height="26" as="geometry"/>
                </mxCell>
                <mxCell id="6Pv5hWprYkh9W1umphO1-48" value="telephone number: string" style="text;strokeColor=none;fillColor=none;align=left;verticalAlign=top;spacingLeft=4;spacingRight=4;overflow=hidden;rotatable=0;points=[[0,0.5],[1,0.5]];portConstraint=eastwest;" vertex="1" parent="6Pv5hWprYkh9W1umphO1-44">
                    <mxGeometry y="104" width="140" height="26" as="geometry"/>
                </mxCell>
                <mxCell id="6Pv5hWprYkh9W1umphO1-63" value="fk order number: int" style="text;strokeColor=none;fillColor=none;align=left;verticalAlign=top;spacingLeft=4;spacingRight=4;overflow=hidden;rotatable=0;points=[[0,0.5],[1,0.5]];portConstraint=eastwest;" vertex="1" parent="6Pv5hWprYkh9W1umphO1-44">
                    <mxGeometry y="130" width="140" height="26" as="geometry"/>
                </mxCell>
                <mxCell id="6Pv5hWprYkh9W1umphO1-49" value="bus station" style="swimlane;fontStyle=0;childLayout=stackLayout;horizontal=1;startSize=26;fillColor=none;horizontalStack=0;resizeParent=1;resizeParentMax=0;resizeLast=0;collapsible=1;marginBottom=0;" vertex="1" parent="uQI4X9tJIaOTLOVRhrYV-1">
                    <mxGeometry x="930" y="120" width="140" height="78" as="geometry"/>
                </mxCell>
                <mxCell id="6Pv5hWprYkh9W1umphO1-50" value="order number: int" style="text;strokeColor=none;fillColor=none;align=left;verticalAlign=top;spacingLeft=4;spacingRight=4;overflow=hidden;rotatable=0;points=[[0,0.5],[1,0.5]];portConstraint=eastwest;" vertex="1" parent="6Pv5hWprYkh9W1umphO1-49">
                    <mxGeometry y="26" width="140" height="26" as="geometry"/>
                </mxCell>
                <mxCell id="6Pv5hWprYkh9W1umphO1-51" value="bus station name: string" style="text;strokeColor=none;fillColor=none;align=left;verticalAlign=top;spacingLeft=4;spacingRight=4;overflow=hidden;rotatable=0;points=[[0,0.5],[1,0.5]];portConstraint=eastwest;" vertex="1" parent="6Pv5hWprYkh9W1umphO1-49">
                    <mxGeometry y="52" width="140" height="26" as="geometry"/>
                </mxCell>
                <mxCell id="6Pv5hWprYkh9W1umphO1-54" style="edgeStyle=none;html=1;exitX=1;exitY=0.5;exitDx=0;exitDy=0;entryX=0;entryY=0.5;entryDx=0;entryDy=0;endArrow=ERone;endFill=0;" edge="1" parent="uQI4X9tJIaOTLOVRhrYV-1" source="6Pv5hWprYkh9W1umphO1-29" target="6Pv5hWprYkh9W1umphO1-53">
                    <mxGeometry relative="1" as="geometry">
                        <Array as="points">
                            <mxPoint x="50" y="139"/>
                            <mxPoint x="50" y="243"/>
                        </Array>
                    </mxGeometry>
                </mxCell>
                <mxCell id="6Pv5hWprYkh9W1umphO1-56" style="edgeStyle=none;html=1;exitX=1;exitY=0.5;exitDx=0;exitDy=0;entryX=0;entryY=0.5;entryDx=0;entryDy=0;endArrow=ERone;endFill=0;" edge="1" parent="uQI4X9tJIaOTLOVRhrYV-1" source="6Pv5hWprYkh9W1umphO1-33" target="6Pv5hWprYkh9W1umphO1-55">
                    <mxGeometry relative="1" as="geometry">
                        <Array as="points">
                            <mxPoint x="290" y="139"/>
                            <mxPoint x="290" y="289"/>
                        </Array>
                    </mxGeometry>
                </mxCell>
                <mxCell id="6Pv5hWprYkh9W1umphO1-57" value="map" style="swimlane;fontStyle=0;childLayout=stackLayout;horizontal=1;startSize=26;fillColor=none;horizontalStack=0;resizeParent=1;resizeParentMax=0;resizeLast=0;collapsible=1;marginBottom=0;" vertex="1" parent="uQI4X9tJIaOTLOVRhrYV-1">
                    <mxGeometry x="570" y="120" width="140" height="104" as="geometry"/>
                </mxCell>
                <mxCell id="6Pv5hWprYkh9W1umphO1-58" value="map ID: int" style="text;strokeColor=none;fillColor=none;align=left;verticalAlign=top;spacingLeft=4;spacingRight=4;overflow=hidden;rotatable=0;points=[[0,0.5],[1,0.5]];portConstraint=eastwest;" vertex="1" parent="6Pv5hWprYkh9W1umphO1-57">
                    <mxGeometry y="26" width="140" height="26" as="geometry"/>
                </mxCell>
                <mxCell id="6Pv5hWprYkh9W1umphO1-59" value="fk route ID: int" style="text;strokeColor=none;fillColor=none;align=left;verticalAlign=top;spacingLeft=4;spacingRight=4;overflow=hidden;rotatable=0;points=[[0,0.5],[1,0.5]];portConstraint=eastwest;" vertex="1" parent="6Pv5hWprYkh9W1umphO1-57">
                    <mxGeometry y="52" width="140" height="26" as="geometry"/>
                </mxCell>
                <mxCell id="6Pv5hWprYkh9W1umphO1-60" value="fk city ID:int" style="text;strokeColor=none;fillColor=none;align=left;verticalAlign=top;spacingLeft=4;spacingRight=4;overflow=hidden;rotatable=0;points=[[0,0.5],[1,0.5]];portConstraint=eastwest;" vertex="1" parent="6Pv5hWprYkh9W1umphO1-57">
                    <mxGeometry y="78" width="140" height="26" as="geometry"/>
                </mxCell>
                <mxCell id="6Pv5hWprYkh9W1umphO1-61" style="edgeStyle=none;html=1;exitX=1;exitY=0.5;exitDx=0;exitDy=0;entryX=0;entryY=0.5;entryDx=0;entryDy=0;endArrow=ERoneToMany;endFill=0;" edge="1" parent="uQI4X9tJIaOTLOVRhrYV-1" source="6Pv5hWprYkh9W1umphO1-38" target="6Pv5hWprYkh9W1umphO1-59">
                    <mxGeometry relative="1" as="geometry">
                        <Array as="points">
                            <mxPoint x="550" y="159"/>
                            <mxPoint x="550" y="185"/>
                        </Array>
                    </mxGeometry>
                </mxCell>
                <mxCell id="6Pv5hWprYkh9W1umphO1-62" style="edgeStyle=none;html=1;exitX=0;exitY=0.5;exitDx=0;exitDy=0;entryX=1;entryY=0.5;entryDx=0;entryDy=0;endArrow=ERoneToMany;endFill=0;" edge="1" parent="uQI4X9tJIaOTLOVRhrYV-1" source="6Pv5hWprYkh9W1umphO1-45" target="6Pv5hWprYkh9W1umphO1-60">
                    <mxGeometry relative="1" as="geometry">
                        <Array as="points">
                            <mxPoint x="740" y="159"/>
                            <mxPoint x="740" y="210"/>
                        </Array>
                    </mxGeometry>
                </mxCell>
                <mxCell id="6Pv5hWprYkh9W1umphO1-64" style="edgeStyle=none;html=1;exitX=1;exitY=0.5;exitDx=0;exitDy=0;entryX=0;entryY=0.5;entryDx=0;entryDy=0;endArrow=ERoneToMany;endFill=0;" edge="1" parent="uQI4X9tJIaOTLOVRhrYV-1" source="6Pv5hWprYkh9W1umphO1-63" target="6Pv5hWprYkh9W1umphO1-50">
                    <mxGeometry relative="1" as="geometry">
                        <Array as="points">
                            <mxPoint x="920" y="263"/>
                            <mxPoint x="910" y="159"/>
                        </Array>
                    </mxGeometry>
                </mxCell>
            </root>
        </mxGraphModel>
    </diagram>
    <diagram id="4PxiNC87prVwFZwc6x6e" name="Step 4 Refine and Normalize">
        <mxGraphModel dx="636" dy="422" grid="1" gridSize="10" guides="1" tooltips="1" connect="1" arrows="1" fold="1" page="1" pageScale="1" pageWidth="827" pageHeight="1169" math="0" shadow="0">
            <root>
                <mxCell id="bE3ymi1TmGcbSd-1ZZKz-0"/>
                <mxCell id="bE3ymi1TmGcbSd-1ZZKz-1" parent="bE3ymi1TmGcbSd-1ZZKz-0"/>
                <mxCell id="uPDFtDKAVRMT0mhWgLuG-0" value="driver" style="swimlane;fontStyle=0;childLayout=stackLayout;horizontal=1;startSize=26;fillColor=none;horizontalStack=0;resizeParent=1;resizeParentMax=0;resizeLast=0;collapsible=1;marginBottom=0;" vertex="1" parent="bE3ymi1TmGcbSd-1ZZKz-1">
                    <mxGeometry x="130" y="160" width="140" height="104" as="geometry"/>
                </mxCell>
                <mxCell id="uPDFtDKAVRMT0mhWgLuG-1" value="driver ID: int" style="text;strokeColor=none;fillColor=none;align=left;verticalAlign=top;spacingLeft=4;spacingRight=4;overflow=hidden;rotatable=0;points=[[0,0.5],[1,0.5]];portConstraint=eastwest;" vertex="1" parent="uPDFtDKAVRMT0mhWgLuG-0">
                    <mxGeometry y="26" width="140" height="26" as="geometry"/>
                </mxCell>
                <mxCell id="uPDFtDKAVRMT0mhWgLuG-2" value="fName: string" style="text;strokeColor=none;fillColor=none;align=left;verticalAlign=top;spacingLeft=4;spacingRight=4;overflow=hidden;rotatable=0;points=[[0,0.5],[1,0.5]];portConstraint=eastwest;" vertex="1" parent="uPDFtDKAVRMT0mhWgLuG-0">
                    <mxGeometry y="52" width="140" height="26" as="geometry"/>
                </mxCell>
                <mxCell id="uPDFtDKAVRMT0mhWgLuG-3" value="LName: string" style="text;strokeColor=none;fillColor=none;align=left;verticalAlign=top;spacingLeft=4;spacingRight=4;overflow=hidden;rotatable=0;points=[[0,0.5],[1,0.5]];portConstraint=eastwest;" vertex="1" parent="uPDFtDKAVRMT0mhWgLuG-0">
                    <mxGeometry y="78" width="140" height="26" as="geometry"/>
                </mxCell>
                <mxCell id="uPDFtDKAVRMT0mhWgLuG-4" value="buses" style="swimlane;fontStyle=0;childLayout=stackLayout;horizontal=1;startSize=26;fillColor=none;horizontalStack=0;resizeParent=1;resizeParentMax=0;resizeLast=0;collapsible=1;marginBottom=0;" vertex="1" parent="bE3ymi1TmGcbSd-1ZZKz-1">
                    <mxGeometry x="330" y="160" width="180" height="156" as="geometry"/>
                </mxCell>
                <mxCell id="uPDFtDKAVRMT0mhWgLuG-5" value="license plate number (ID): string" style="text;strokeColor=none;fillColor=none;align=left;verticalAlign=top;spacingLeft=4;spacingRight=4;overflow=hidden;rotatable=0;points=[[0,0.5],[1,0.5]];portConstraint=eastwest;" vertex="1" parent="uPDFtDKAVRMT0mhWgLuG-4">
                    <mxGeometry y="26" width="180" height="26" as="geometry"/>
                </mxCell>
                <mxCell id="uPDFtDKAVRMT0mhWgLuG-6" value="model: string" style="text;strokeColor=none;fillColor=none;align=left;verticalAlign=top;spacingLeft=4;spacingRight=4;overflow=hidden;rotatable=0;points=[[0,0.5],[1,0.5]];portConstraint=eastwest;" vertex="1" parent="uPDFtDKAVRMT0mhWgLuG-4">
                    <mxGeometry y="52" width="180" height="26" as="geometry"/>
                </mxCell>
                <mxCell id="uPDFtDKAVRMT0mhWgLuG-7" value="capacity: int" style="text;strokeColor=none;fillColor=none;align=left;verticalAlign=top;spacingLeft=4;spacingRight=4;overflow=hidden;rotatable=0;points=[[0,0.5],[1,0.5]];portConstraint=eastwest;" vertex="1" parent="uPDFtDKAVRMT0mhWgLuG-4">
                    <mxGeometry y="78" width="180" height="26" as="geometry"/>
                </mxCell>
                <mxCell id="uPDFtDKAVRMT0mhWgLuG-8" value="driver name: string" style="text;strokeColor=none;fillColor=none;align=left;verticalAlign=top;spacingLeft=4;spacingRight=4;overflow=hidden;rotatable=0;points=[[0,0.5],[1,0.5]];portConstraint=eastwest;" vertex="1" parent="uPDFtDKAVRMT0mhWgLuG-4">
                    <mxGeometry y="104" width="180" height="26" as="geometry"/>
                </mxCell>
                <mxCell id="uPDFtDKAVRMT0mhWgLuG-9" value="fk driver ID: int" style="text;strokeColor=none;fillColor=none;align=left;verticalAlign=top;spacingLeft=4;spacingRight=4;overflow=hidden;rotatable=0;points=[[0,0.5],[1,0.5]];portConstraint=eastwest;" vertex="1" parent="uPDFtDKAVRMT0mhWgLuG-4">
                    <mxGeometry y="130" width="180" height="26" as="geometry"/>
                </mxCell>
                <mxCell id="uPDFtDKAVRMT0mhWgLuG-10" value="routes" style="swimlane;fontStyle=0;childLayout=stackLayout;horizontal=1;startSize=26;fillColor=none;horizontalStack=0;resizeParent=1;resizeParentMax=0;resizeLast=0;collapsible=1;marginBottom=0;" vertex="1" parent="bE3ymi1TmGcbSd-1ZZKz-1">
                    <mxGeometry x="570" y="180" width="210" height="156" as="geometry"/>
                </mxCell>
                <mxCell id="uPDFtDKAVRMT0mhWgLuG-11" value="route ID: int" style="text;strokeColor=none;fillColor=none;align=left;verticalAlign=top;spacingLeft=4;spacingRight=4;overflow=hidden;rotatable=0;points=[[0,0.5],[1,0.5]];portConstraint=eastwest;" vertex="1" parent="uPDFtDKAVRMT0mhWgLuG-10">
                    <mxGeometry y="26" width="210" height="26" as="geometry"/>
                </mxCell>
                <mxCell id="uPDFtDKAVRMT0mhWgLuG-12" value="distance: int" style="text;strokeColor=none;fillColor=none;align=left;verticalAlign=top;spacingLeft=4;spacingRight=4;overflow=hidden;rotatable=0;points=[[0,0.5],[1,0.5]];portConstraint=eastwest;" vertex="1" parent="uPDFtDKAVRMT0mhWgLuG-10">
                    <mxGeometry y="52" width="210" height="26" as="geometry"/>
                </mxCell>
                <mxCell id="uPDFtDKAVRMT0mhWgLuG-13" value="origin: string" style="text;strokeColor=none;fillColor=none;align=left;verticalAlign=top;spacingLeft=4;spacingRight=4;overflow=hidden;rotatable=0;points=[[0,0.5],[1,0.5]];portConstraint=eastwest;" vertex="1" parent="uPDFtDKAVRMT0mhWgLuG-10">
                    <mxGeometry y="78" width="210" height="26" as="geometry"/>
                </mxCell>
                <mxCell id="uPDFtDKAVRMT0mhWgLuG-15" value="destination: string" style="text;strokeColor=none;fillColor=none;align=left;verticalAlign=top;spacingLeft=4;spacingRight=4;overflow=hidden;rotatable=0;points=[[0,0.5],[1,0.5]];portConstraint=eastwest;" vertex="1" parent="uPDFtDKAVRMT0mhWgLuG-10">
                    <mxGeometry y="104" width="210" height="26" as="geometry"/>
                </mxCell>
                <mxCell id="uPDFtDKAVRMT0mhWgLuG-16" value="fk license plate number (ID): String" style="text;strokeColor=none;fillColor=none;align=left;verticalAlign=top;spacingLeft=4;spacingRight=4;overflow=hidden;rotatable=0;points=[[0,0.5],[1,0.5]];portConstraint=eastwest;" vertex="1" parent="uPDFtDKAVRMT0mhWgLuG-10">
                    <mxGeometry y="130" width="210" height="26" as="geometry"/>
                </mxCell>
                <mxCell id="uPDFtDKAVRMT0mhWgLuG-17" value="cities" style="swimlane;fontStyle=0;childLayout=stackLayout;horizontal=1;startSize=26;fillColor=none;horizontalStack=0;resizeParent=1;resizeParentMax=0;resizeLast=0;collapsible=1;marginBottom=0;" vertex="1" parent="bE3ymi1TmGcbSd-1ZZKz-1">
                    <mxGeometry x="1010" y="180" width="140" height="156" as="geometry"/>
                </mxCell>
                <mxCell id="uPDFtDKAVRMT0mhWgLuG-18" value="city ID: int" style="text;strokeColor=none;fillColor=none;align=left;verticalAlign=top;spacingLeft=4;spacingRight=4;overflow=hidden;rotatable=0;points=[[0,0.5],[1,0.5]];portConstraint=eastwest;" vertex="1" parent="uPDFtDKAVRMT0mhWgLuG-17">
                    <mxGeometry y="26" width="140" height="26" as="geometry"/>
                </mxCell>
                <mxCell id="uPDFtDKAVRMT0mhWgLuG-19" value="city name: string" style="text;strokeColor=none;fillColor=none;align=left;verticalAlign=top;spacingLeft=4;spacingRight=4;overflow=hidden;rotatable=0;points=[[0,0.5],[1,0.5]];portConstraint=eastwest;" vertex="1" parent="uPDFtDKAVRMT0mhWgLuG-17">
                    <mxGeometry y="52" width="140" height="26" as="geometry"/>
                </mxCell>
                <mxCell id="uPDFtDKAVRMT0mhWgLuG-20" value="address: string" style="text;strokeColor=none;fillColor=none;align=left;verticalAlign=top;spacingLeft=4;spacingRight=4;overflow=hidden;rotatable=0;points=[[0,0.5],[1,0.5]];portConstraint=eastwest;" vertex="1" parent="uPDFtDKAVRMT0mhWgLuG-17">
                    <mxGeometry y="78" width="140" height="26" as="geometry"/>
                </mxCell>
                <mxCell id="uPDFtDKAVRMT0mhWgLuG-21" value="telephone number: string" style="text;strokeColor=none;fillColor=none;align=left;verticalAlign=top;spacingLeft=4;spacingRight=4;overflow=hidden;rotatable=0;points=[[0,0.5],[1,0.5]];portConstraint=eastwest;" vertex="1" parent="uPDFtDKAVRMT0mhWgLuG-17">
                    <mxGeometry y="104" width="140" height="26" as="geometry"/>
                </mxCell>
                <mxCell id="uPDFtDKAVRMT0mhWgLuG-22" value="fk order number: int" style="text;strokeColor=none;fillColor=none;align=left;verticalAlign=top;spacingLeft=4;spacingRight=4;overflow=hidden;rotatable=0;points=[[0,0.5],[1,0.5]];portConstraint=eastwest;" vertex="1" parent="uPDFtDKAVRMT0mhWgLuG-17">
                    <mxGeometry y="130" width="140" height="26" as="geometry"/>
                </mxCell>
                <mxCell id="uPDFtDKAVRMT0mhWgLuG-23" value="bus station" style="swimlane;fontStyle=0;childLayout=stackLayout;horizontal=1;startSize=26;fillColor=none;horizontalStack=0;resizeParent=1;resizeParentMax=0;resizeLast=0;collapsible=1;marginBottom=0;" vertex="1" parent="bE3ymi1TmGcbSd-1ZZKz-1">
                    <mxGeometry x="1010" y="380" width="140" height="78" as="geometry"/>
                </mxCell>
                <mxCell id="uPDFtDKAVRMT0mhWgLuG-24" value="order number: int" style="text;strokeColor=none;fillColor=none;align=left;verticalAlign=top;spacingLeft=4;spacingRight=4;overflow=hidden;rotatable=0;points=[[0,0.5],[1,0.5]];portConstraint=eastwest;" vertex="1" parent="uPDFtDKAVRMT0mhWgLuG-23">
                    <mxGeometry y="26" width="140" height="26" as="geometry"/>
                </mxCell>
                <mxCell id="uPDFtDKAVRMT0mhWgLuG-25" value="bus station name: string" style="text;strokeColor=none;fillColor=none;align=left;verticalAlign=top;spacingLeft=4;spacingRight=4;overflow=hidden;rotatable=0;points=[[0,0.5],[1,0.5]];portConstraint=eastwest;" vertex="1" parent="uPDFtDKAVRMT0mhWgLuG-23">
                    <mxGeometry y="52" width="140" height="26" as="geometry"/>
                </mxCell>
                <mxCell id="uPDFtDKAVRMT0mhWgLuG-26" style="edgeStyle=none;html=1;exitX=1;exitY=0.5;exitDx=0;exitDy=0;entryX=0;entryY=0.5;entryDx=0;entryDy=0;endArrow=ERone;endFill=0;" edge="1" source="uPDFtDKAVRMT0mhWgLuG-1" target="uPDFtDKAVRMT0mhWgLuG-9" parent="bE3ymi1TmGcbSd-1ZZKz-1">
                    <mxGeometry relative="1" as="geometry">
                        <Array as="points">
                            <mxPoint x="300" y="199"/>
                            <mxPoint x="300" y="303"/>
                        </Array>
                    </mxGeometry>
                </mxCell>
                <mxCell id="uPDFtDKAVRMT0mhWgLuG-27" style="edgeStyle=none;html=1;exitX=1;exitY=0.5;exitDx=0;exitDy=0;entryX=0;entryY=0.5;entryDx=0;entryDy=0;endArrow=ERone;endFill=0;" edge="1" source="uPDFtDKAVRMT0mhWgLuG-5" target="uPDFtDKAVRMT0mhWgLuG-16" parent="bE3ymi1TmGcbSd-1ZZKz-1">
                    <mxGeometry relative="1" as="geometry">
                        <Array as="points">
                            <mxPoint x="540" y="199"/>
                            <mxPoint x="540" y="323"/>
                        </Array>
                    </mxGeometry>
                </mxCell>
                <mxCell id="uPDFtDKAVRMT0mhWgLuG-28" value="map" style="swimlane;fontStyle=0;childLayout=stackLayout;horizontal=1;startSize=26;fillColor=none;horizontalStack=0;resizeParent=1;resizeParentMax=0;resizeLast=0;collapsible=1;marginBottom=0;" vertex="1" parent="bE3ymi1TmGcbSd-1ZZKz-1">
                    <mxGeometry x="820" y="180" width="140" height="104" as="geometry"/>
                </mxCell>
                <mxCell id="uPDFtDKAVRMT0mhWgLuG-29" value="map ID: int" style="text;strokeColor=none;fillColor=none;align=left;verticalAlign=top;spacingLeft=4;spacingRight=4;overflow=hidden;rotatable=0;points=[[0,0.5],[1,0.5]];portConstraint=eastwest;" vertex="1" parent="uPDFtDKAVRMT0mhWgLuG-28">
                    <mxGeometry y="26" width="140" height="26" as="geometry"/>
                </mxCell>
                <mxCell id="uPDFtDKAVRMT0mhWgLuG-30" value="fk route ID: int" style="text;strokeColor=none;fillColor=none;align=left;verticalAlign=top;spacingLeft=4;spacingRight=4;overflow=hidden;rotatable=0;points=[[0,0.5],[1,0.5]];portConstraint=eastwest;" vertex="1" parent="uPDFtDKAVRMT0mhWgLuG-28">
                    <mxGeometry y="52" width="140" height="26" as="geometry"/>
                </mxCell>
                <mxCell id="uPDFtDKAVRMT0mhWgLuG-31" value="fk city ID:int" style="text;strokeColor=none;fillColor=none;align=left;verticalAlign=top;spacingLeft=4;spacingRight=4;overflow=hidden;rotatable=0;points=[[0,0.5],[1,0.5]];portConstraint=eastwest;" vertex="1" parent="uPDFtDKAVRMT0mhWgLuG-28">
                    <mxGeometry y="78" width="140" height="26" as="geometry"/>
                </mxCell>
                <mxCell id="uPDFtDKAVRMT0mhWgLuG-32" style="edgeStyle=none;html=1;exitX=1;exitY=0.5;exitDx=0;exitDy=0;entryX=0;entryY=0.5;entryDx=0;entryDy=0;endArrow=ERoneToMany;endFill=0;" edge="1" source="uPDFtDKAVRMT0mhWgLuG-11" target="uPDFtDKAVRMT0mhWgLuG-30" parent="bE3ymi1TmGcbSd-1ZZKz-1">
                    <mxGeometry relative="1" as="geometry">
                        <Array as="points">
                            <mxPoint x="800" y="219"/>
                            <mxPoint x="800" y="245"/>
                        </Array>
                    </mxGeometry>
                </mxCell>
                <mxCell id="uPDFtDKAVRMT0mhWgLuG-33" style="edgeStyle=none;html=1;exitX=0;exitY=0.5;exitDx=0;exitDy=0;entryX=1;entryY=0.5;entryDx=0;entryDy=0;endArrow=ERoneToMany;endFill=0;" edge="1" source="uPDFtDKAVRMT0mhWgLuG-18" target="uPDFtDKAVRMT0mhWgLuG-31" parent="bE3ymi1TmGcbSd-1ZZKz-1">
                    <mxGeometry relative="1" as="geometry">
                        <Array as="points">
                            <mxPoint x="990" y="219"/>
                            <mxPoint x="990" y="270"/>
                        </Array>
                    </mxGeometry>
                </mxCell>
                <mxCell id="uPDFtDKAVRMT0mhWgLuG-34" style="edgeStyle=none;html=1;exitX=1;exitY=0.5;exitDx=0;exitDy=0;entryX=1;entryY=0.5;entryDx=0;entryDy=0;endArrow=ERoneToMany;endFill=0;" edge="1" source="uPDFtDKAVRMT0mhWgLuG-22" target="uPDFtDKAVRMT0mhWgLuG-24" parent="bE3ymi1TmGcbSd-1ZZKz-1">
                    <mxGeometry relative="1" as="geometry">
                        <Array as="points">
                            <mxPoint x="1170" y="323"/>
                            <mxPoint x="1170" y="419"/>
                        </Array>
                    </mxGeometry>
                </mxCell>
                <mxCell id="uPDFtDKAVRMT0mhWgLuG-36" style="edgeStyle=orthogonalEdgeStyle;html=1;exitX=1;exitY=0.5;exitDx=0;exitDy=0;entryX=0;entryY=0.5;entryDx=0;entryDy=0;endArrow=ERoneToMany;endFill=0;" edge="1" parent="bE3ymi1TmGcbSd-1ZZKz-1" source="uPDFtDKAVRMT0mhWgLuG-15" target="uPDFtDKAVRMT0mhWgLuG-25">
                    <mxGeometry relative="1" as="geometry"/>
                </mxCell>
                <mxCell id="uPDFtDKAVRMT0mhWgLuG-37" style="edgeStyle=orthogonalEdgeStyle;html=1;exitX=1;exitY=0.5;exitDx=0;exitDy=0;endArrow=ERoneToMany;endFill=0;" edge="1" parent="bE3ymi1TmGcbSd-1ZZKz-1" source="uPDFtDKAVRMT0mhWgLuG-13">
                    <mxGeometry relative="1" as="geometry">
                        <mxPoint x="1010" y="450" as="targetPoint"/>
                        <Array as="points">
                            <mxPoint x="800" y="271"/>
                            <mxPoint x="800" y="450"/>
                        </Array>
                    </mxGeometry>
                </mxCell>
            </root>
        </mxGraphModel>
    </diagram>
</mxfile>